name C:\Users\r0593348\3dpredictsim\Results\batch_windlass\Pog_s1_tmt_bCst_d00_k1500_WL30_ig24_pas.mot
datacolumns 128
datarows 4
range 1.67633054 1.70985715
endheader
time	pelvis_tilt	pelvis_list	pelvis_rotation	pelvis_tx	pelvis_ty	pelvis_tz	hip_flexion_l	hip_adduction_l	hip_rotation_l	hip_flexion_r	hip_adduction_r	hip_rotation_r	knee_angle_l	knee_angle_r	ankle_angle_l	ankle_angle_r	subtalar_angle_l	subtalar_angle_r	tmt_angle_l	tmt_angle_r	mtp_angle_l	mtp_angle_r	lumbar_extension	lumbar_bending	lumbar_rotation	arm_flex_l	arm_add_l	arm_rot_l	arm_flex_r	arm_add_r	arm_rot_r	elbow_flex_l	elbow_flex_r	pro_sup_l	pro_sup_r	glut_med1_l/activation	glut_med2_l/activation	glut_med3_l/activation	glut_min1_l/activation	glut_min2_l/activation	glut_min3_l/activation	semimem_l/activation	semiten_l/activation	bifemlh_l/activation	bifemsh_l/activation	sar_l/activation	add_long_l/activation	add_brev_l/activation	add_mag1_l/activation	add_mag2_l/activation	add_mag3_l/activation	tfl_l/activation	pect_l/activation	grac_l/activation	glut_max1_l/activation	glut_max2_l/activation	glut_max3_l/activation	iliacus_l/activation	psoas_l/activation	quad_fem_l/activation	gem_l/activation	peri_l/activation	rect_fem_l/activation	vas_med_l/activation	vas_int_l/activation	vas_lat_l/activation	med_gas_l/activation	lat_gas_l/activation	soleus_l/activation	tib_post_l/activation	flex_dig_l/activation	flex_hal_l/activation	tib_ant_l/activation	per_brev_l/activation	per_long_l/activation	per_tert_l/activation	ext_dig_l/activation	ext_hal_l/activation	ercspn_l/activation	intobl_l/activation	extobl_l/activation	glut_med1_r/activation	glut_med2_r/activation	glut_med3_r/activation	glut_min1_r/activation	glut_min2_r/activation	glut_min3_r/activation	semimem_r/activation	semiten_r/activation	bifemlh_r/activation	bifemsh_r/activation	sar_r/activation	add_long_r/activation	add_brev_r/activation	add_mag1_r/activation	add_mag2_r/activation	add_mag3_r/activation	tfl_r/activation	pect_r/activation	grac_r/activation	glut_max1_r/activation	glut_max2_r/activation	glut_max3_r/activation	iliacus_r/activation	psoas_r/activation	quad_fem_r/activation	gem_r/activation	peri_r/activation	rect_fem_r/activation	vas_med_r/activation	vas_int_r/activation	vas_lat_r/activation	med_gas_r/activation	lat_gas_r/activation	soleus_r/activation	tib_post_r/activation	flex_dig_r/activation	flex_hal_r/activation	tib_ant_r/activation	per_brev_r/activation	per_long_r/activation	per_tert_r/activation	ext_dig_r/activation	ext_hal_r/activation	ercspn_r/activation	intobl_r/activation	extobl_r/activation	
          1.67633054	         -2.92923505	          2.05087747	         -6.07587735	          2.09541318	          0.85765853	          0.00283468	         32.09709489	          2.55287805	         -3.04676719	        -18.29495853	         -1.83210444	          7.08898030	        -16.14906036	         -7.81136791	          6.91781149	          2.27478473	         -1.62763410	         11.61580912	         -0.16474634	         -8.78866307	          0.50207625	         27.81872174	         -1.67557592	         -0.32330326	          2.14296478	         -9.45951632	        -13.53855111	          8.70114991	          7.29915947	        -13.46598232	         17.66586145	         14.52176126	         37.23950908	         86.51662706	         86.51662706	          0.05000007	          0.05644025	          0.05000007	          0.05000005	          0.05000009	          0.05000100	          0.05243452	          0.05931297	          0.19038626	          0.05000030	          0.05000017	          0.09233162	          0.12926926	          0.15186028	          0.16588763	          0.13403317	          0.05000060	          0.05000055	          0.05931270	          0.05931304	          0.10500165	          0.12331114	          0.05653180	          0.06123278	          0.19672124	          0.05000011	          0.05000027	          0.05001078	          0.09715207	          0.10496979	          0.08226141	          0.05000001	          0.05000006	          0.05370743	          0.05750335	          0.05931320	          0.05931313	          0.51721159	          0.40623324	          0.23132659	          0.13284432	          0.56449635	          0.22910362	          0.06344580	          0.10517584	          0.11320204	          0.30888466	          0.09121040	          0.05426690	          0.32639208	          0.19779935	          0.09605108	          0.05000064	          0.05000010	          0.05000007	          0.07615794	          0.09899944	          0.09875655	          0.05000018	          0.05000018	          0.05000047	          0.05000058	          0.28387486	          0.05000141	          0.05000021	          0.05000088	          0.05000060	          0.05000045	          0.36840266	          0.56603023	          0.05000006	          0.05000030	          0.05000010	          0.24580761	          0.10134744	          0.10810361	          0.05000117	          0.30176901	          0.39386554	          0.24406040	          0.24260939	          0.22989638	          0.31472522	          0.05000000	          0.12076056	          0.19828555	          0.05000002	          0.05000000	          0.05000002	          0.05000000	          0.05000001	          0.05000000	
          1.68750608	         -2.92285105	          2.12348947	         -6.31907999	          2.11260941	          0.85677649	          0.00261738	         31.44208025	          2.92084295	         -2.85464233	        -18.14066501	         -2.13013118	          6.90326506	        -15.63525386	         -9.76044431	          6.56914875	          1.18905576	         -2.11542626	         12.55389501	         -0.25002244	         -9.28035193	          0.73800373	         28.93034168	         -1.45454654	         -0.55974683	          2.23361309	        -10.64547793	        -13.52578743	          8.51509154	          7.03193021	        -13.48969399	         17.86902216	         14.48110313	         38.45696529	         86.51662706	         86.51662706	          0.05421334	          0.05000263	          0.27385386	          0.05931303	          0.05931297	          0.05000051	          0.05000007	          0.05000004	          0.19005824	          0.05000001	          0.05000017	          0.09901328	          0.26614108	          0.27633790	          0.20614683	          0.14622999	          0.05000003	          0.07044267	          0.05000017	          0.05000010	          0.08851497	          0.17000521	          0.05931308	          0.05453436	          0.16583333	          0.16721903	          0.13996263	          0.06832653	          0.19897225	          0.19166612	          0.16751572	          0.05000000	          0.05000000	          0.05000000	          0.05000000	          0.05000023	          0.05000019	          0.68428512	          0.34429563	          0.19500517	          0.50307274	          0.64852993	          0.37786977	          0.05864141	          0.08866179	          0.09542776	          0.27479508	          0.07688912	          0.05000000	          0.27514411	          0.16674215	          0.08096976	          0.05000023	          0.05000003	          0.05000002	          0.06420011	          0.08345530	          0.15196942	          0.16980564	          0.05000087	          0.05000037	          0.05000006	          0.23930265	          0.11745369	          0.05000072	          0.05000025	          0.05000015	          0.05000010	          0.31055842	          0.52261210	          0.05000003	          0.05000011	          0.05000006	          0.20721246	          0.08546218	          0.12125292	          0.13933042	          0.25438713	          0.33202324	          0.20573956	          0.20451641	          0.19379956	          0.26530908	          0.05000000	          0.10179951	          0.16715205	          0.05000002	          0.05000000	          0.05000002	          0.05692639	          0.05000001	          0.05000000	
          1.69868162	         -2.91087463	          2.19634582	         -6.53243623	          2.13009270	          0.85576566	          0.00240253	         30.66971342	          3.26462807	         -2.59466459	        -17.89535925	         -2.41433710	          6.70503643	        -15.76761968	        -11.88750674	          6.04151511	         -0.01873187	         -2.59637259	         13.44249165	         -0.37427124	         -9.64622827	          1.01914554	         29.64777900	         -1.21183542	         -0.80393077	          2.31374491	        -11.82873357	        -13.51695173	          8.38391586	          6.67653321	        -13.51832978	         17.99132382	         14.44168271	         39.65223397	         86.51662706	         86.51662706	          0.05000001	          0.05000002	          0.23085508	          0.05000008	          0.05000004	          0.05000004	          0.05000018	          0.05000076	          0.16021652	          0.05000008	          0.05000012	          0.08346685	          0.22435331	          0.28145817	          0.25019381	          0.16901654	          0.05000018	          0.05938252	          0.11643011	          0.14581240	          0.14099782	          0.14331216	          0.05000015	          0.05000007	          0.26476134	          0.14096336	          0.11798659	          0.05930409	          0.22844629	          0.23759167	          0.20191824	          0.05931295	          0.05931298	          0.05390303	          0.05000081	          0.05944854	          0.05000141	          0.57684298	          0.44364965	          0.22700041	          0.42408539	          0.60412006	          0.31853905	          0.05000000	          0.07474067	          0.08044429	          0.23164851	          0.06481648	          0.05082053	          0.23194274	          0.14056136	          0.06825641	          0.05000051	          0.05000007	          0.05000013	          0.05411981	          0.07035172	          0.19530811	          0.30826827	          0.08263337	          0.07036718	          0.16528192	          0.20172887	          0.09901194	          0.05000017	          0.05011256	          0.05930128	          0.05931290	          0.26179649	          0.46197799	          0.05931287	          0.05026893	          0.05000006	          0.17467726	          0.12486036	          0.13933050	          0.11745397	          0.21444486	          0.27989103	          0.17343563	          0.17240454	          0.16337040	          0.22365193	          0.08070156	          0.08581561	          0.18036776	          0.05000003	          0.11307112	          0.05000021	          0.07152447	          0.05931294	          0.05281387	
          1.70985715	         -2.89506724	          2.27373583	         -6.71183325	          2.14768680	          0.85463019	          0.00218987	         29.74650261	          3.56424429	         -2.31179747	        -17.53939246	         -2.68022148	          6.50018949	        -16.18033435	        -14.21536436	          5.72004669	         -1.27731360	         -3.09936256	         14.23959966	         -0.96112881	         -9.79240419	          1.14646454	         29.67011015	         -0.96349803	         -1.05726312	          2.38135591	        -12.96557145	        -13.51617374	          8.34354173	          6.26243623	        -13.54789318	         18.04126353	         14.36891459	         40.80929941	         86.51662706	         86.51662706	          0.28542322	          0.31279975	          0.42838646	          0.23752112	          0.20813306	          0.24079326	          0.08236169	          0.09517091	          0.13506048	          0.05000013	          0.05000030	          0.07036142	          0.18912677	          0.23726541	          0.21091003	          0.16427707	          0.05000006	          0.05005877	          0.09814905	          0.25470972	          0.19884217	          0.14461504	          0.05000002	          0.05000003	          0.22319034	          0.11883024	          0.22708937	          0.05000001	          0.19257717	          0.20531903	          0.17021443	          0.05000002	          0.05000005	          0.05000003	          0.05000000	          0.05011481	          0.05000114	          0.68671477	          0.38044840	          0.19135825	          0.66996967	          0.68715899	          0.41709997	          0.06108979	          0.08346577	          0.06781344	          0.26411470	          0.05463941	          0.05000000	          0.25298634	          0.11849131	          0.05753923	          0.05000077	          0.05000004	          0.05000003	          0.05000003	          0.05930668	          0.17219202	          0.28513074	          0.06965885	          0.05931871	          0.13933044	          0.17005483	          0.08346597	          0.05000013	          0.05000016	          0.05000010	          0.05000010	          0.22069086	          0.43064314	          0.05000001	          0.05000005	          0.05000002	          0.14725053	          0.10525558	          0.11745370	          0.09901209	          0.18077407	          0.23594430	          0.14620385	          0.14533467	          0.13771903	          0.18853554	          0.16222939	          0.15696235	          0.16577573	          0.21065987	          0.21156862	          0.09901237	          0.09016378	          0.05000000	          0.05000000	
